<mxfile host="app.diagrams.net" modified="2023-10-22T16:08:33.694Z" agent="Mozilla/5.0 (Windows NT 10.0; Win64; x64) AppleWebKit/537.36 (KHTML, like Gecko) Chrome/118.0.0.0 Safari/537.36" etag="SpU9gwSZJxhvrAiRo5Ol" version="22.0.6" type="github">
  <diagram id="C5RBs43oDa-KdzZeNtuy" name="Page-1">
    <mxGraphModel dx="2944" dy="1743" grid="1" gridSize="10" guides="1" tooltips="1" connect="1" arrows="1" fold="1" page="1" pageScale="1" pageWidth="827" pageHeight="1169" math="0" shadow="0">
      <root>
        <mxCell id="WIyWlLk6GJQsqaUBKTNV-0" />
        <mxCell id="WIyWlLk6GJQsqaUBKTNV-1" parent="WIyWlLk6GJQsqaUBKTNV-0" />
        <mxCell id="WFU6_DCVK5FejDo-Dc5B-0" style="edgeStyle=orthogonalEdgeStyle;rounded=0;orthogonalLoop=1;jettySize=auto;html=1;entryX=0.75;entryY=0;entryDx=0;entryDy=0;endArrow=none;endFill=0;exitX=0.536;exitY=1.067;exitDx=0;exitDy=0;exitPerimeter=0;" edge="1" parent="WIyWlLk6GJQsqaUBKTNV-1" source="WFU6_DCVK5FejDo-Dc5B-9" target="WFU6_DCVK5FejDo-Dc5B-78">
          <mxGeometry relative="1" as="geometry">
            <mxPoint x="515" y="-17.003333333333387" as="sourcePoint" />
            <Array as="points">
              <mxPoint x="-100" y="-768" />
              <mxPoint x="-100" y="-240" />
              <mxPoint x="-260" y="-240" />
            </Array>
          </mxGeometry>
        </mxCell>
        <mxCell id="WFU6_DCVK5FejDo-Dc5B-1" value="Is" style="edgeLabel;html=1;align=center;verticalAlign=middle;resizable=0;points=[];" vertex="1" connectable="0" parent="WFU6_DCVK5FejDo-Dc5B-0">
          <mxGeometry x="-0.035" relative="1" as="geometry">
            <mxPoint x="15" y="-10" as="offset" />
          </mxGeometry>
        </mxCell>
        <mxCell id="WFU6_DCVK5FejDo-Dc5B-2" value="1" style="edgeLabel;html=1;align=center;verticalAlign=middle;resizable=0;points=[];" vertex="1" connectable="0" parent="WFU6_DCVK5FejDo-Dc5B-0">
          <mxGeometry x="-0.66" y="2" relative="1" as="geometry">
            <mxPoint x="8" y="-12" as="offset" />
          </mxGeometry>
        </mxCell>
        <mxCell id="WFU6_DCVK5FejDo-Dc5B-3" value="1" style="edgeLabel;html=1;align=center;verticalAlign=middle;resizable=0;points=[];" vertex="1" connectable="0" parent="WFU6_DCVK5FejDo-Dc5B-0">
          <mxGeometry x="0.49" y="-3" relative="1" as="geometry">
            <mxPoint x="-27" y="-17" as="offset" />
          </mxGeometry>
        </mxCell>
        <mxCell id="WFU6_DCVK5FejDo-Dc5B-4" style="edgeStyle=orthogonalEdgeStyle;rounded=0;orthogonalLoop=1;jettySize=auto;html=1;entryX=0.5;entryY=0;entryDx=0;entryDy=0;exitX=0;exitY=0.5;exitDx=0;exitDy=0;" edge="1" parent="WIyWlLk6GJQsqaUBKTNV-1" source="WFU6_DCVK5FejDo-Dc5B-9" target="WFU6_DCVK5FejDo-Dc5B-114">
          <mxGeometry relative="1" as="geometry">
            <mxPoint x="-250" y="-607" as="targetPoint" />
          </mxGeometry>
        </mxCell>
        <mxCell id="WFU6_DCVK5FejDo-Dc5B-5" value="Directs To" style="edgeLabel;html=1;align=center;verticalAlign=middle;resizable=0;points=[];" vertex="1" connectable="0" parent="WFU6_DCVK5FejDo-Dc5B-4">
          <mxGeometry x="0.0231" relative="1" as="geometry">
            <mxPoint x="12" y="-15" as="offset" />
          </mxGeometry>
        </mxCell>
        <mxCell id="WFU6_DCVK5FejDo-Dc5B-6" value="1" style="edgeLabel;html=1;align=center;verticalAlign=middle;resizable=0;points=[];" vertex="1" connectable="0" parent="WFU6_DCVK5FejDo-Dc5B-4">
          <mxGeometry x="0.8269" y="-4" relative="1" as="geometry">
            <mxPoint x="-3" y="-11" as="offset" />
          </mxGeometry>
        </mxCell>
        <mxCell id="WFU6_DCVK5FejDo-Dc5B-7" value="1" style="edgeLabel;html=1;align=center;verticalAlign=middle;resizable=0;points=[];" vertex="1" connectable="0" parent="WFU6_DCVK5FejDo-Dc5B-4">
          <mxGeometry x="-0.8938" relative="1" as="geometry">
            <mxPoint x="15" as="offset" />
          </mxGeometry>
        </mxCell>
        <mxCell id="WFU6_DCVK5FejDo-Dc5B-8" value="Character Profile" style="swimlane;fontStyle=0;childLayout=stackLayout;horizontal=1;startSize=30;horizontalStack=0;resizeParent=1;resizeParentMax=0;resizeLast=0;collapsible=1;marginBottom=0;whiteSpace=wrap;html=1;" vertex="1" parent="WIyWlLk6GJQsqaUBKTNV-1">
          <mxGeometry x="-180" y="-830" width="160" height="60" as="geometry" />
        </mxCell>
        <mxCell id="WFU6_DCVK5FejDo-Dc5B-9" value="Name" style="text;strokeColor=none;fillColor=none;align=left;verticalAlign=middle;spacingLeft=4;spacingRight=4;overflow=hidden;points=[[0,0.5],[1,0.5]];portConstraint=eastwest;rotatable=0;whiteSpace=wrap;html=1;" vertex="1" parent="WFU6_DCVK5FejDo-Dc5B-8">
          <mxGeometry y="30" width="160" height="30" as="geometry" />
        </mxCell>
        <mxCell id="WFU6_DCVK5FejDo-Dc5B-10" value="Weapon" style="swimlane;fontStyle=0;childLayout=stackLayout;horizontal=1;startSize=30;horizontalStack=0;resizeParent=1;resizeParentMax=0;resizeLast=0;collapsible=1;marginBottom=0;whiteSpace=wrap;html=1;" vertex="1" parent="WIyWlLk6GJQsqaUBKTNV-1">
          <mxGeometry x="-690" y="-160" width="160" height="90" as="geometry" />
        </mxCell>
        <mxCell id="WFU6_DCVK5FejDo-Dc5B-11" value="Skin" style="text;strokeColor=none;fillColor=none;align=left;verticalAlign=middle;spacingLeft=4;spacingRight=4;overflow=hidden;points=[[0,0.5],[1,0.5]];portConstraint=eastwest;rotatable=0;whiteSpace=wrap;html=1;" vertex="1" parent="WFU6_DCVK5FejDo-Dc5B-10">
          <mxGeometry y="30" width="160" height="30" as="geometry" />
        </mxCell>
        <mxCell id="WFU6_DCVK5FejDo-Dc5B-12" value="Action" style="text;strokeColor=none;fillColor=none;align=left;verticalAlign=middle;spacingLeft=4;spacingRight=4;overflow=hidden;points=[[0,0.5],[1,0.5]];portConstraint=eastwest;rotatable=0;whiteSpace=wrap;html=1;" vertex="1" parent="WFU6_DCVK5FejDo-Dc5B-10">
          <mxGeometry y="60" width="160" height="30" as="geometry" />
        </mxCell>
        <mxCell id="WFU6_DCVK5FejDo-Dc5B-13" value="Power-Up" style="swimlane;fontStyle=0;childLayout=stackLayout;horizontal=1;startSize=30;horizontalStack=0;resizeParent=1;resizeParentMax=0;resizeLast=0;collapsible=1;marginBottom=0;whiteSpace=wrap;html=1;" vertex="1" parent="WIyWlLk6GJQsqaUBKTNV-1">
          <mxGeometry x="-520" y="-59.99999999999994" width="160" height="60" as="geometry" />
        </mxCell>
        <mxCell id="WFU6_DCVK5FejDo-Dc5B-14" value="Design" style="text;strokeColor=none;fillColor=none;align=left;verticalAlign=middle;spacingLeft=4;spacingRight=4;overflow=hidden;points=[[0,0.5],[1,0.5]];portConstraint=eastwest;rotatable=0;whiteSpace=wrap;html=1;" vertex="1" parent="WFU6_DCVK5FejDo-Dc5B-13">
          <mxGeometry y="30" width="160" height="30" as="geometry" />
        </mxCell>
        <mxCell id="WFU6_DCVK5FejDo-Dc5B-15" value="Obstacle" style="swimlane;fontStyle=0;childLayout=stackLayout;horizontal=1;startSize=30;horizontalStack=0;resizeParent=1;resizeParentMax=0;resizeLast=0;collapsible=1;marginBottom=0;whiteSpace=wrap;html=1;" vertex="1" parent="WIyWlLk6GJQsqaUBKTNV-1">
          <mxGeometry x="-840" y="-250" width="160" height="60" as="geometry" />
        </mxCell>
        <mxCell id="WFU6_DCVK5FejDo-Dc5B-16" value="Design" style="text;strokeColor=none;fillColor=none;align=left;verticalAlign=middle;spacingLeft=4;spacingRight=4;overflow=hidden;points=[[0,0.5],[1,0.5]];portConstraint=eastwest;rotatable=0;whiteSpace=wrap;html=1;" vertex="1" parent="WFU6_DCVK5FejDo-Dc5B-15">
          <mxGeometry y="30" width="160" height="30" as="geometry" />
        </mxCell>
        <mxCell id="WFU6_DCVK5FejDo-Dc5B-17" value="NPC" style="swimlane;fontStyle=0;childLayout=stackLayout;horizontal=1;startSize=30;horizontalStack=0;resizeParent=1;resizeParentMax=0;resizeLast=0;collapsible=1;marginBottom=0;whiteSpace=wrap;html=1;" vertex="1" parent="WIyWlLk6GJQsqaUBKTNV-1">
          <mxGeometry x="-825" y="-510" width="160" height="60" as="geometry" />
        </mxCell>
        <mxCell id="WFU6_DCVK5FejDo-Dc5B-18" value="Skin" style="text;strokeColor=none;fillColor=none;align=left;verticalAlign=middle;spacingLeft=4;spacingRight=4;overflow=hidden;points=[[0,0.5],[1,0.5]];portConstraint=eastwest;rotatable=0;whiteSpace=wrap;html=1;" vertex="1" parent="WFU6_DCVK5FejDo-Dc5B-17">
          <mxGeometry y="30" width="160" height="30" as="geometry" />
        </mxCell>
        <mxCell id="WFU6_DCVK5FejDo-Dc5B-19" value="Trap" style="swimlane;fontStyle=0;childLayout=stackLayout;horizontal=1;startSize=30;horizontalStack=0;resizeParent=1;resizeParentMax=0;resizeLast=0;collapsible=1;marginBottom=0;whiteSpace=wrap;html=1;" vertex="1" parent="WIyWlLk6GJQsqaUBKTNV-1">
          <mxGeometry x="-160" y="-185" width="160" height="60" as="geometry" />
        </mxCell>
        <mxCell id="WFU6_DCVK5FejDo-Dc5B-20" value="Design" style="text;strokeColor=none;fillColor=none;align=left;verticalAlign=middle;spacingLeft=4;spacingRight=4;overflow=hidden;points=[[0,0.5],[1,0.5]];portConstraint=eastwest;rotatable=0;whiteSpace=wrap;html=1;" vertex="1" parent="WFU6_DCVK5FejDo-Dc5B-19">
          <mxGeometry y="30" width="160" height="30" as="geometry" />
        </mxCell>
        <mxCell id="WFU6_DCVK5FejDo-Dc5B-21" value="Exit" style="swimlane;fontStyle=0;childLayout=stackLayout;horizontal=1;startSize=30;horizontalStack=0;resizeParent=1;resizeParentMax=0;resizeLast=0;collapsible=1;marginBottom=0;whiteSpace=wrap;html=1;" vertex="1" parent="WIyWlLk6GJQsqaUBKTNV-1">
          <mxGeometry x="-240" y="-80" width="160" height="60" as="geometry" />
        </mxCell>
        <mxCell id="WFU6_DCVK5FejDo-Dc5B-22" value="Design" style="text;strokeColor=none;fillColor=none;align=left;verticalAlign=middle;spacingLeft=4;spacingRight=4;overflow=hidden;points=[[0,0.5],[1,0.5]];portConstraint=eastwest;rotatable=0;whiteSpace=wrap;html=1;" vertex="1" parent="WFU6_DCVK5FejDo-Dc5B-21">
          <mxGeometry y="30" width="160" height="30" as="geometry" />
        </mxCell>
        <mxCell id="WFU6_DCVK5FejDo-Dc5B-23" style="edgeStyle=orthogonalEdgeStyle;rounded=0;orthogonalLoop=1;jettySize=auto;html=1;entryX=0.5;entryY=0;entryDx=0;entryDy=0;exitX=0.54;exitY=1.012;exitDx=0;exitDy=0;exitPerimeter=0;" edge="1" parent="WIyWlLk6GJQsqaUBKTNV-1" source="WFU6_DCVK5FejDo-Dc5B-41" target="WFU6_DCVK5FejDo-Dc5B-15">
          <mxGeometry relative="1" as="geometry" />
        </mxCell>
        <mxCell id="WFU6_DCVK5FejDo-Dc5B-24" value="Contains" style="edgeLabel;html=1;align=center;verticalAlign=middle;resizable=0;points=[];" vertex="1" connectable="0" parent="WFU6_DCVK5FejDo-Dc5B-23">
          <mxGeometry y="-1" relative="1" as="geometry">
            <mxPoint x="9" y="-9" as="offset" />
          </mxGeometry>
        </mxCell>
        <mxCell id="WFU6_DCVK5FejDo-Dc5B-25" value="1" style="edgeLabel;html=1;align=center;verticalAlign=middle;resizable=0;points=[];" vertex="1" connectable="0" parent="WFU6_DCVK5FejDo-Dc5B-23">
          <mxGeometry x="-0.8167" relative="1" as="geometry">
            <mxPoint x="10" y="-1" as="offset" />
          </mxGeometry>
        </mxCell>
        <mxCell id="WFU6_DCVK5FejDo-Dc5B-26" value="0..*" style="edgeLabel;html=1;align=center;verticalAlign=middle;resizable=0;points=[];" vertex="1" connectable="0" parent="WFU6_DCVK5FejDo-Dc5B-23">
          <mxGeometry x="0.7167" y="1" relative="1" as="geometry">
            <mxPoint x="19" as="offset" />
          </mxGeometry>
        </mxCell>
        <mxCell id="WFU6_DCVK5FejDo-Dc5B-27" style="edgeStyle=orthogonalEdgeStyle;rounded=0;orthogonalLoop=1;jettySize=auto;html=1;entryX=0.995;entryY=0.153;entryDx=0;entryDy=0;entryPerimeter=0;exitX=0.25;exitY=0;exitDx=0;exitDy=0;" edge="1" parent="WIyWlLk6GJQsqaUBKTNV-1" source="WFU6_DCVK5FejDo-Dc5B-39" target="WFU6_DCVK5FejDo-Dc5B-18">
          <mxGeometry relative="1" as="geometry">
            <Array as="points">
              <mxPoint x="-530" y="-475" />
            </Array>
          </mxGeometry>
        </mxCell>
        <mxCell id="WFU6_DCVK5FejDo-Dc5B-28" value="Contains" style="edgeLabel;html=1;align=center;verticalAlign=middle;resizable=0;points=[];" vertex="1" connectable="0" parent="WFU6_DCVK5FejDo-Dc5B-27">
          <mxGeometry x="0.0028" y="-3" relative="1" as="geometry">
            <mxPoint x="-25" y="-12" as="offset" />
          </mxGeometry>
        </mxCell>
        <mxCell id="WFU6_DCVK5FejDo-Dc5B-29" value="0..*" style="edgeLabel;html=1;align=center;verticalAlign=middle;resizable=0;points=[];" vertex="1" connectable="0" parent="WFU6_DCVK5FejDo-Dc5B-27">
          <mxGeometry x="0.8266" y="-2" relative="1" as="geometry">
            <mxPoint y="-12" as="offset" />
          </mxGeometry>
        </mxCell>
        <mxCell id="WFU6_DCVK5FejDo-Dc5B-30" value="1" style="edgeLabel;html=1;align=center;verticalAlign=middle;resizable=0;points=[];" vertex="1" connectable="0" parent="WFU6_DCVK5FejDo-Dc5B-27">
          <mxGeometry x="-0.8643" y="-3" relative="1" as="geometry">
            <mxPoint y="-12" as="offset" />
          </mxGeometry>
        </mxCell>
        <mxCell id="WFU6_DCVK5FejDo-Dc5B-31" style="edgeStyle=orthogonalEdgeStyle;rounded=0;orthogonalLoop=1;jettySize=auto;html=1;entryX=0.5;entryY=1;entryDx=0;entryDy=0;entryPerimeter=0;" edge="1" parent="WIyWlLk6GJQsqaUBKTNV-1" source="WFU6_DCVK5FejDo-Dc5B-39" target="WFU6_DCVK5FejDo-Dc5B-54">
          <mxGeometry relative="1" as="geometry" />
        </mxCell>
        <mxCell id="WFU6_DCVK5FejDo-Dc5B-32" value="Contains" style="edgeLabel;html=1;align=center;verticalAlign=middle;resizable=0;points=[];" vertex="1" connectable="0" parent="WFU6_DCVK5FejDo-Dc5B-31">
          <mxGeometry x="-0.0215" y="-2" relative="1" as="geometry">
            <mxPoint x="-3" y="-13" as="offset" />
          </mxGeometry>
        </mxCell>
        <mxCell id="WFU6_DCVK5FejDo-Dc5B-33" value="0..*" style="edgeLabel;html=1;align=center;verticalAlign=middle;resizable=0;points=[];" vertex="1" connectable="0" parent="WFU6_DCVK5FejDo-Dc5B-31">
          <mxGeometry x="0.7692" y="2" relative="1" as="geometry">
            <mxPoint x="22" as="offset" />
          </mxGeometry>
        </mxCell>
        <mxCell id="WFU6_DCVK5FejDo-Dc5B-34" value="1" style="edgeLabel;html=1;align=center;verticalAlign=middle;resizable=0;points=[];" vertex="1" connectable="0" parent="WFU6_DCVK5FejDo-Dc5B-31">
          <mxGeometry x="-0.7846" y="-1" relative="1" as="geometry">
            <mxPoint x="9" y="52" as="offset" />
          </mxGeometry>
        </mxCell>
        <mxCell id="WFU6_DCVK5FejDo-Dc5B-35" style="edgeStyle=orthogonalEdgeStyle;rounded=0;orthogonalLoop=1;jettySize=auto;html=1;entryX=0;entryY=0.25;entryDx=0;entryDy=0;exitX=1;exitY=0.5;exitDx=0;exitDy=0;" edge="1" parent="WIyWlLk6GJQsqaUBKTNV-1" source="WFU6_DCVK5FejDo-Dc5B-41" target="WFU6_DCVK5FejDo-Dc5B-78">
          <mxGeometry relative="1" as="geometry" />
        </mxCell>
        <mxCell id="WFU6_DCVK5FejDo-Dc5B-36" value="Contains" style="edgeLabel;html=1;align=center;verticalAlign=middle;resizable=0;points=[];" vertex="1" connectable="0" parent="WFU6_DCVK5FejDo-Dc5B-35">
          <mxGeometry x="0.0321" y="-3" relative="1" as="geometry">
            <mxPoint x="-32" as="offset" />
          </mxGeometry>
        </mxCell>
        <mxCell id="WFU6_DCVK5FejDo-Dc5B-37" value="1" style="edgeLabel;html=1;align=center;verticalAlign=middle;resizable=0;points=[];" vertex="1" connectable="0" parent="WFU6_DCVK5FejDo-Dc5B-35">
          <mxGeometry x="-0.8793" y="2" relative="1" as="geometry">
            <mxPoint y="-13" as="offset" />
          </mxGeometry>
        </mxCell>
        <mxCell id="WFU6_DCVK5FejDo-Dc5B-38" value="1" style="edgeLabel;html=1;align=center;verticalAlign=middle;resizable=0;points=[];" vertex="1" connectable="0" parent="WFU6_DCVK5FejDo-Dc5B-35">
          <mxGeometry x="0.8846" y="3" relative="1" as="geometry">
            <mxPoint y="-7" as="offset" />
          </mxGeometry>
        </mxCell>
        <mxCell id="WFU6_DCVK5FejDo-Dc5B-39" value="Room" style="swimlane;fontStyle=0;childLayout=stackLayout;horizontal=1;startSize=30;horizontalStack=0;resizeParent=1;resizeParentMax=0;resizeLast=0;collapsible=1;marginBottom=0;whiteSpace=wrap;html=1;" vertex="1" parent="WIyWlLk6GJQsqaUBKTNV-1">
          <mxGeometry x="-570" y="-390" width="160" height="90" as="geometry" />
        </mxCell>
        <mxCell id="WFU6_DCVK5FejDo-Dc5B-40" value="Title" style="text;strokeColor=none;fillColor=none;align=left;verticalAlign=middle;spacingLeft=4;spacingRight=4;overflow=hidden;points=[[0,0.5],[1,0.5]];portConstraint=eastwest;rotatable=0;whiteSpace=wrap;html=1;" vertex="1" parent="WFU6_DCVK5FejDo-Dc5B-39">
          <mxGeometry y="30" width="160" height="30" as="geometry" />
        </mxCell>
        <mxCell id="WFU6_DCVK5FejDo-Dc5B-41" value="Design" style="text;strokeColor=none;fillColor=none;align=left;verticalAlign=middle;spacingLeft=4;spacingRight=4;overflow=hidden;points=[[0,0.5],[1,0.5]];portConstraint=eastwest;rotatable=0;whiteSpace=wrap;html=1;" vertex="1" parent="WFU6_DCVK5FejDo-Dc5B-39">
          <mxGeometry y="60" width="160" height="30" as="geometry" />
        </mxCell>
        <mxCell id="WFU6_DCVK5FejDo-Dc5B-42" style="edgeStyle=orthogonalEdgeStyle;rounded=0;orthogonalLoop=1;jettySize=auto;html=1;entryX=0.5;entryY=0;entryDx=0;entryDy=0;endArrow=classic;endFill=1;" edge="1" parent="WIyWlLk6GJQsqaUBKTNV-1" source="WFU6_DCVK5FejDo-Dc5B-46" target="WFU6_DCVK5FejDo-Dc5B-55">
          <mxGeometry relative="1" as="geometry" />
        </mxCell>
        <mxCell id="WFU6_DCVK5FejDo-Dc5B-43" value="Directs To" style="edgeLabel;html=1;align=center;verticalAlign=middle;resizable=0;points=[];" vertex="1" connectable="0" parent="WFU6_DCVK5FejDo-Dc5B-42">
          <mxGeometry x="-0.1067" y="-3" relative="1" as="geometry">
            <mxPoint x="-27" y="3" as="offset" />
          </mxGeometry>
        </mxCell>
        <mxCell id="WFU6_DCVK5FejDo-Dc5B-44" value="1" style="edgeLabel;html=1;align=center;verticalAlign=middle;resizable=0;points=[];" vertex="1" connectable="0" parent="WFU6_DCVK5FejDo-Dc5B-42">
          <mxGeometry x="-0.7733" y="2" relative="1" as="geometry">
            <mxPoint x="8" as="offset" />
          </mxGeometry>
        </mxCell>
        <mxCell id="WFU6_DCVK5FejDo-Dc5B-45" value="1" style="edgeLabel;html=1;align=center;verticalAlign=middle;resizable=0;points=[];" vertex="1" connectable="0" parent="WFU6_DCVK5FejDo-Dc5B-42">
          <mxGeometry x="0.5933" y="-2" relative="1" as="geometry">
            <mxPoint x="12" as="offset" />
          </mxGeometry>
        </mxCell>
        <mxCell id="WFU6_DCVK5FejDo-Dc5B-46" value="Game" style="swimlane;fontStyle=0;childLayout=stackLayout;horizontal=1;startSize=30;horizontalStack=0;resizeParent=1;resizeParentMax=0;resizeLast=0;collapsible=1;marginBottom=0;whiteSpace=wrap;html=1;" vertex="1" parent="WIyWlLk6GJQsqaUBKTNV-1">
          <mxGeometry x="-665" y="-1070" width="160" height="90" as="geometry" />
        </mxCell>
        <mxCell id="WFU6_DCVK5FejDo-Dc5B-47" value="Title" style="text;strokeColor=none;fillColor=none;align=left;verticalAlign=middle;spacingLeft=4;spacingRight=4;overflow=hidden;points=[[0,0.5],[1,0.5]];portConstraint=eastwest;rotatable=0;whiteSpace=wrap;html=1;" vertex="1" parent="WFU6_DCVK5FejDo-Dc5B-46">
          <mxGeometry y="30" width="160" height="30" as="geometry" />
        </mxCell>
        <mxCell id="WFU6_DCVK5FejDo-Dc5B-48" value="Music" style="text;strokeColor=none;fillColor=none;align=left;verticalAlign=middle;spacingLeft=4;spacingRight=4;overflow=hidden;points=[[0,0.5],[1,0.5]];portConstraint=eastwest;rotatable=0;whiteSpace=wrap;html=1;" vertex="1" parent="WFU6_DCVK5FejDo-Dc5B-46">
          <mxGeometry y="60" width="160" height="30" as="geometry" />
        </mxCell>
        <mxCell id="WFU6_DCVK5FejDo-Dc5B-49" value="Enemy" style="swimlane;fontStyle=0;childLayout=stackLayout;horizontal=1;startSize=30;horizontalStack=0;resizeParent=1;resizeParentMax=0;resizeLast=0;collapsible=1;marginBottom=0;whiteSpace=wrap;html=1;" vertex="1" parent="WIyWlLk6GJQsqaUBKTNV-1">
          <mxGeometry x="-840" y="-920" width="160" height="180" as="geometry" />
        </mxCell>
        <mxCell id="WFU6_DCVK5FejDo-Dc5B-50" value="Type" style="text;strokeColor=none;fillColor=none;align=left;verticalAlign=middle;spacingLeft=4;spacingRight=4;overflow=hidden;points=[[0,0.5],[1,0.5]];portConstraint=eastwest;rotatable=0;whiteSpace=wrap;html=1;" vertex="1" parent="WFU6_DCVK5FejDo-Dc5B-49">
          <mxGeometry y="30" width="160" height="30" as="geometry" />
        </mxCell>
        <mxCell id="WFU6_DCVK5FejDo-Dc5B-51" value="Skin" style="text;strokeColor=none;fillColor=none;align=left;verticalAlign=middle;spacingLeft=4;spacingRight=4;overflow=hidden;points=[[0,0.5],[1,0.5]];portConstraint=eastwest;rotatable=0;whiteSpace=wrap;html=1;" vertex="1" parent="WFU6_DCVK5FejDo-Dc5B-49">
          <mxGeometry y="60" width="160" height="30" as="geometry" />
        </mxCell>
        <mxCell id="WFU6_DCVK5FejDo-Dc5B-52" value="Health" style="text;strokeColor=none;fillColor=none;align=left;verticalAlign=middle;spacingLeft=4;spacingRight=4;overflow=hidden;points=[[0,0.5],[1,0.5]];portConstraint=eastwest;rotatable=0;whiteSpace=wrap;html=1;" vertex="1" parent="WFU6_DCVK5FejDo-Dc5B-49">
          <mxGeometry y="90" width="160" height="30" as="geometry" />
        </mxCell>
        <mxCell id="WFU6_DCVK5FejDo-Dc5B-53" value="Direction" style="text;strokeColor=none;fillColor=none;align=left;verticalAlign=middle;spacingLeft=4;spacingRight=4;overflow=hidden;points=[[0,0.5],[1,0.5]];portConstraint=eastwest;rotatable=0;whiteSpace=wrap;html=1;" vertex="1" parent="WFU6_DCVK5FejDo-Dc5B-49">
          <mxGeometry y="120" width="160" height="30" as="geometry" />
        </mxCell>
        <mxCell id="WFU6_DCVK5FejDo-Dc5B-54" value="Speed" style="text;strokeColor=none;fillColor=none;align=left;verticalAlign=middle;spacingLeft=4;spacingRight=4;overflow=hidden;points=[[0,0.5],[1,0.5]];portConstraint=eastwest;rotatable=0;whiteSpace=wrap;html=1;" vertex="1" parent="WFU6_DCVK5FejDo-Dc5B-49">
          <mxGeometry y="150" width="160" height="30" as="geometry" />
        </mxCell>
        <mxCell id="WFU6_DCVK5FejDo-Dc5B-55" value="Main Menu" style="swimlane;fontStyle=0;childLayout=stackLayout;horizontal=1;startSize=30;horizontalStack=0;resizeParent=1;resizeParentMax=0;resizeLast=0;collapsible=1;marginBottom=0;whiteSpace=wrap;html=1;" vertex="1" parent="WIyWlLk6GJQsqaUBKTNV-1">
          <mxGeometry x="-650" y="-890" width="160" height="120" as="geometry" />
        </mxCell>
        <mxCell id="WFU6_DCVK5FejDo-Dc5B-56" value="Dashboard" style="text;strokeColor=none;fillColor=none;align=left;verticalAlign=middle;spacingLeft=4;spacingRight=4;overflow=hidden;points=[[0,0.5],[1,0.5]];portConstraint=eastwest;rotatable=0;whiteSpace=wrap;html=1;" vertex="1" parent="WFU6_DCVK5FejDo-Dc5B-55">
          <mxGeometry y="30" width="160" height="30" as="geometry" />
        </mxCell>
        <mxCell id="WFU6_DCVK5FejDo-Dc5B-57" value="Background" style="text;strokeColor=none;fillColor=none;align=left;verticalAlign=middle;spacingLeft=4;spacingRight=4;overflow=hidden;points=[[0,0.5],[1,0.5]];portConstraint=eastwest;rotatable=0;whiteSpace=wrap;html=1;" vertex="1" parent="WFU6_DCVK5FejDo-Dc5B-55">
          <mxGeometry y="60" width="160" height="30" as="geometry" />
        </mxCell>
        <mxCell id="WFU6_DCVK5FejDo-Dc5B-58" value="Music" style="text;strokeColor=none;fillColor=none;align=left;verticalAlign=middle;spacingLeft=4;spacingRight=4;overflow=hidden;points=[[0,0.5],[1,0.5]];portConstraint=eastwest;rotatable=0;whiteSpace=wrap;html=1;" vertex="1" parent="WFU6_DCVK5FejDo-Dc5B-55">
          <mxGeometry y="90" width="160" height="30" as="geometry" />
        </mxCell>
        <mxCell id="WFU6_DCVK5FejDo-Dc5B-59" style="edgeStyle=orthogonalEdgeStyle;rounded=0;orthogonalLoop=1;jettySize=auto;html=1;entryX=0;entryY=0.25;entryDx=0;entryDy=0;endArrow=none;endFill=0;" edge="1" parent="WIyWlLk6GJQsqaUBKTNV-1" source="WFU6_DCVK5FejDo-Dc5B-63" target="WFU6_DCVK5FejDo-Dc5B-8">
          <mxGeometry relative="1" as="geometry" />
        </mxCell>
        <mxCell id="WFU6_DCVK5FejDo-Dc5B-60" value="Owns" style="edgeLabel;html=1;align=center;verticalAlign=middle;resizable=0;points=[];" vertex="1" connectable="0" parent="WFU6_DCVK5FejDo-Dc5B-59">
          <mxGeometry x="-0.0863" y="1" relative="1" as="geometry">
            <mxPoint x="-17" y="-15" as="offset" />
          </mxGeometry>
        </mxCell>
        <mxCell id="WFU6_DCVK5FejDo-Dc5B-61" value="1" style="edgeLabel;html=1;align=center;verticalAlign=middle;resizable=0;points=[];" vertex="1" connectable="0" parent="WFU6_DCVK5FejDo-Dc5B-59">
          <mxGeometry x="-0.7922" y="1" relative="1" as="geometry">
            <mxPoint x="9" as="offset" />
          </mxGeometry>
        </mxCell>
        <mxCell id="WFU6_DCVK5FejDo-Dc5B-62" value="1" style="edgeLabel;html=1;align=center;verticalAlign=middle;resizable=0;points=[];" vertex="1" connectable="0" parent="WFU6_DCVK5FejDo-Dc5B-59">
          <mxGeometry x="0.6784" relative="1" as="geometry">
            <mxPoint x="10" as="offset" />
          </mxGeometry>
        </mxCell>
        <mxCell id="WFU6_DCVK5FejDo-Dc5B-63" value="User" style="swimlane;fontStyle=0;childLayout=stackLayout;horizontal=1;startSize=26;fillColor=none;horizontalStack=0;resizeParent=1;resizeParentMax=0;resizeLast=0;collapsible=1;marginBottom=0;whiteSpace=wrap;html=1;" vertex="1" parent="WIyWlLk6GJQsqaUBKTNV-1">
          <mxGeometry x="-390" y="-1040" width="140" height="78" as="geometry" />
        </mxCell>
        <mxCell id="WFU6_DCVK5FejDo-Dc5B-64" value="Username" style="text;strokeColor=none;fillColor=none;align=left;verticalAlign=top;spacingLeft=4;spacingRight=4;overflow=hidden;rotatable=0;points=[[0,0.5],[1,0.5]];portConstraint=eastwest;whiteSpace=wrap;html=1;" vertex="1" parent="WFU6_DCVK5FejDo-Dc5B-63">
          <mxGeometry y="26" width="140" height="26" as="geometry" />
        </mxCell>
        <mxCell id="WFU6_DCVK5FejDo-Dc5B-65" value="Password" style="text;strokeColor=none;fillColor=none;align=left;verticalAlign=top;spacingLeft=4;spacingRight=4;overflow=hidden;rotatable=0;points=[[0,0.5],[1,0.5]];portConstraint=eastwest;whiteSpace=wrap;html=1;" vertex="1" parent="WFU6_DCVK5FejDo-Dc5B-63">
          <mxGeometry y="52" width="140" height="26" as="geometry" />
        </mxCell>
        <mxCell id="WFU6_DCVK5FejDo-Dc5B-66" style="edgeStyle=orthogonalEdgeStyle;rounded=0;orthogonalLoop=1;jettySize=auto;html=1;entryX=0.5;entryY=0;entryDx=0;entryDy=0;exitX=0.342;exitY=1;exitDx=0;exitDy=0;exitPerimeter=0;" edge="1" parent="WIyWlLk6GJQsqaUBKTNV-1" source="WFU6_DCVK5FejDo-Dc5B-82" target="WFU6_DCVK5FejDo-Dc5B-13">
          <mxGeometry relative="1" as="geometry" />
        </mxCell>
        <mxCell id="WFU6_DCVK5FejDo-Dc5B-67" value="Consumes" style="edgeLabel;html=1;align=center;verticalAlign=middle;resizable=0;points=[];" vertex="1" connectable="0" parent="WFU6_DCVK5FejDo-Dc5B-66">
          <mxGeometry x="-0.0286" relative="1" as="geometry">
            <mxPoint x="-17" y="-10" as="offset" />
          </mxGeometry>
        </mxCell>
        <mxCell id="WFU6_DCVK5FejDo-Dc5B-68" value="1" style="edgeLabel;html=1;align=center;verticalAlign=middle;resizable=0;points=[];" vertex="1" connectable="0" parent="WFU6_DCVK5FejDo-Dc5B-66">
          <mxGeometry x="-0.6571" y="-1" relative="1" as="geometry">
            <mxPoint x="-14" as="offset" />
          </mxGeometry>
        </mxCell>
        <mxCell id="WFU6_DCVK5FejDo-Dc5B-69" value="0..1" style="edgeLabel;html=1;align=center;verticalAlign=middle;resizable=0;points=[];" vertex="1" connectable="0" parent="WFU6_DCVK5FejDo-Dc5B-66">
          <mxGeometry x="0.5429" y="-1" relative="1" as="geometry">
            <mxPoint x="-19" y="5" as="offset" />
          </mxGeometry>
        </mxCell>
        <mxCell id="WFU6_DCVK5FejDo-Dc5B-70" style="edgeStyle=orthogonalEdgeStyle;rounded=0;orthogonalLoop=1;jettySize=auto;html=1;entryX=0;entryY=0.5;entryDx=0;entryDy=0;" edge="1" parent="WIyWlLk6GJQsqaUBKTNV-1" source="WFU6_DCVK5FejDo-Dc5B-78" target="WFU6_DCVK5FejDo-Dc5B-19">
          <mxGeometry relative="1" as="geometry" />
        </mxCell>
        <mxCell id="WFU6_DCVK5FejDo-Dc5B-71" value="Falls Into" style="edgeLabel;html=1;align=center;verticalAlign=middle;resizable=0;points=[];" vertex="1" connectable="0" parent="WFU6_DCVK5FejDo-Dc5B-70">
          <mxGeometry x="-0.0137" y="-2" relative="1" as="geometry">
            <mxPoint x="12" y="-29" as="offset" />
          </mxGeometry>
        </mxCell>
        <mxCell id="WFU6_DCVK5FejDo-Dc5B-72" value="1" style="edgeLabel;html=1;align=center;verticalAlign=middle;resizable=0;points=[];" vertex="1" connectable="0" parent="WFU6_DCVK5FejDo-Dc5B-70">
          <mxGeometry x="-0.8812" y="-1" relative="1" as="geometry">
            <mxPoint y="-11" as="offset" />
          </mxGeometry>
        </mxCell>
        <mxCell id="WFU6_DCVK5FejDo-Dc5B-73" value="1" style="edgeLabel;html=1;align=center;verticalAlign=middle;resizable=0;points=[];" vertex="1" connectable="0" parent="WFU6_DCVK5FejDo-Dc5B-70">
          <mxGeometry x="0.9" y="1" relative="1" as="geometry">
            <mxPoint y="-9" as="offset" />
          </mxGeometry>
        </mxCell>
        <mxCell id="WFU6_DCVK5FejDo-Dc5B-74" style="edgeStyle=orthogonalEdgeStyle;rounded=0;orthogonalLoop=1;jettySize=auto;html=1;entryX=-0.026;entryY=0.1;entryDx=0;entryDy=0;entryPerimeter=0;" edge="1" parent="WIyWlLk6GJQsqaUBKTNV-1" source="WFU6_DCVK5FejDo-Dc5B-78" target="WFU6_DCVK5FejDo-Dc5B-22">
          <mxGeometry relative="1" as="geometry" />
        </mxCell>
        <mxCell id="WFU6_DCVK5FejDo-Dc5B-75" value="Travels" style="edgeLabel;html=1;align=center;verticalAlign=middle;resizable=0;points=[];" vertex="1" connectable="0" parent="WFU6_DCVK5FejDo-Dc5B-74">
          <mxGeometry x="0.4432" relative="1" as="geometry">
            <mxPoint y="-8" as="offset" />
          </mxGeometry>
        </mxCell>
        <mxCell id="WFU6_DCVK5FejDo-Dc5B-76" value="1" style="edgeLabel;html=1;align=center;verticalAlign=middle;resizable=0;points=[];" vertex="1" connectable="0" parent="WFU6_DCVK5FejDo-Dc5B-74">
          <mxGeometry x="0.8328" y="1" relative="1" as="geometry">
            <mxPoint y="-7" as="offset" />
          </mxGeometry>
        </mxCell>
        <mxCell id="WFU6_DCVK5FejDo-Dc5B-77" value="1" style="edgeLabel;html=1;align=center;verticalAlign=middle;resizable=0;points=[];" vertex="1" connectable="0" parent="WFU6_DCVK5FejDo-Dc5B-74">
          <mxGeometry x="-0.7603" y="1" relative="1" as="geometry">
            <mxPoint x="9" y="5" as="offset" />
          </mxGeometry>
        </mxCell>
        <mxCell id="WFU6_DCVK5FejDo-Dc5B-78" value="Character" style="swimlane;fontStyle=0;childLayout=stackLayout;horizontal=1;startSize=30;horizontalStack=0;resizeParent=1;resizeParentMax=0;resizeLast=0;collapsible=1;marginBottom=0;whiteSpace=wrap;html=1;" vertex="1" parent="WIyWlLk6GJQsqaUBKTNV-1">
          <mxGeometry x="-380" y="-260" width="160" height="150" as="geometry" />
        </mxCell>
        <mxCell id="WFU6_DCVK5FejDo-Dc5B-79" value="Skin" style="text;strokeColor=none;fillColor=none;align=left;verticalAlign=middle;spacingLeft=4;spacingRight=4;overflow=hidden;points=[[0,0.5],[1,0.5]];portConstraint=eastwest;rotatable=0;whiteSpace=wrap;html=1;" vertex="1" parent="WFU6_DCVK5FejDo-Dc5B-78">
          <mxGeometry y="30" width="160" height="30" as="geometry" />
        </mxCell>
        <mxCell id="WFU6_DCVK5FejDo-Dc5B-80" value="Health" style="text;strokeColor=none;fillColor=none;align=left;verticalAlign=middle;spacingLeft=4;spacingRight=4;overflow=hidden;points=[[0,0.5],[1,0.5]];portConstraint=eastwest;rotatable=0;whiteSpace=wrap;html=1;" vertex="1" parent="WFU6_DCVK5FejDo-Dc5B-78">
          <mxGeometry y="60" width="160" height="30" as="geometry" />
        </mxCell>
        <mxCell id="WFU6_DCVK5FejDo-Dc5B-81" value="Speed" style="text;strokeColor=none;fillColor=none;align=left;verticalAlign=middle;spacingLeft=4;spacingRight=4;overflow=hidden;points=[[0,0.5],[1,0.5]];portConstraint=eastwest;rotatable=0;whiteSpace=wrap;html=1;" vertex="1" parent="WFU6_DCVK5FejDo-Dc5B-78">
          <mxGeometry y="90" width="160" height="30" as="geometry" />
        </mxCell>
        <mxCell id="WFU6_DCVK5FejDo-Dc5B-82" value="Direction" style="text;strokeColor=none;fillColor=none;align=left;verticalAlign=middle;spacingLeft=4;spacingRight=4;overflow=hidden;points=[[0,0.5],[1,0.5]];portConstraint=eastwest;rotatable=0;whiteSpace=wrap;html=1;" vertex="1" parent="WFU6_DCVK5FejDo-Dc5B-78">
          <mxGeometry y="120" width="160" height="30" as="geometry" />
        </mxCell>
        <mxCell id="WFU6_DCVK5FejDo-Dc5B-83" style="edgeStyle=orthogonalEdgeStyle;rounded=0;orthogonalLoop=1;jettySize=auto;html=1;entryX=1;entryY=0.5;entryDx=0;entryDy=0;" edge="1" parent="WIyWlLk6GJQsqaUBKTNV-1" source="WFU6_DCVK5FejDo-Dc5B-81" target="WFU6_DCVK5FejDo-Dc5B-11">
          <mxGeometry relative="1" as="geometry">
            <mxPoint x="-440" y="302.93" as="targetPoint" />
          </mxGeometry>
        </mxCell>
        <mxCell id="WFU6_DCVK5FejDo-Dc5B-84" value="Wields" style="edgeLabel;html=1;align=center;verticalAlign=middle;resizable=0;points=[];" vertex="1" connectable="0" parent="WFU6_DCVK5FejDo-Dc5B-83">
          <mxGeometry x="0.0314" y="2" relative="1" as="geometry">
            <mxPoint x="-7" y="-38" as="offset" />
          </mxGeometry>
        </mxCell>
        <mxCell id="WFU6_DCVK5FejDo-Dc5B-85" value="1" style="edgeLabel;html=1;align=center;verticalAlign=middle;resizable=0;points=[];rotation=0;" vertex="1" connectable="0" parent="WFU6_DCVK5FejDo-Dc5B-83">
          <mxGeometry x="0.7924" y="-1" relative="1" as="geometry">
            <mxPoint y="-9" as="offset" />
          </mxGeometry>
        </mxCell>
        <mxCell id="WFU6_DCVK5FejDo-Dc5B-86" value="1" style="edgeLabel;html=1;align=center;verticalAlign=middle;resizable=0;points=[];" vertex="1" connectable="0" parent="WFU6_DCVK5FejDo-Dc5B-83">
          <mxGeometry x="-0.8724" relative="1" as="geometry">
            <mxPoint y="-15" as="offset" />
          </mxGeometry>
        </mxCell>
        <mxCell id="WFU6_DCVK5FejDo-Dc5B-87" value="Map" style="swimlane;fontStyle=0;childLayout=stackLayout;horizontal=1;startSize=30;horizontalStack=0;resizeParent=1;resizeParentMax=0;resizeLast=0;collapsible=1;marginBottom=0;whiteSpace=wrap;html=1;" vertex="1" parent="WIyWlLk6GJQsqaUBKTNV-1">
          <mxGeometry x="-620" y="-710.0000000000001" width="160" height="90" as="geometry" />
        </mxCell>
        <mxCell id="WFU6_DCVK5FejDo-Dc5B-88" value="Room Title" style="text;strokeColor=none;fillColor=none;align=left;verticalAlign=middle;spacingLeft=4;spacingRight=4;overflow=hidden;points=[[0,0.5],[1,0.5]];portConstraint=eastwest;rotatable=0;whiteSpace=wrap;html=1;" vertex="1" parent="WFU6_DCVK5FejDo-Dc5B-87">
          <mxGeometry y="30" width="160" height="30" as="geometry" />
        </mxCell>
        <mxCell id="WFU6_DCVK5FejDo-Dc5B-89" value="Design" style="text;strokeColor=none;fillColor=none;align=left;verticalAlign=middle;spacingLeft=4;spacingRight=4;overflow=hidden;points=[[0,0.5],[1,0.5]];portConstraint=eastwest;rotatable=0;whiteSpace=wrap;html=1;" vertex="1" parent="WFU6_DCVK5FejDo-Dc5B-87">
          <mxGeometry y="60" width="160" height="30" as="geometry" />
        </mxCell>
        <mxCell id="WFU6_DCVK5FejDo-Dc5B-90" style="edgeStyle=orthogonalEdgeStyle;rounded=0;orthogonalLoop=1;jettySize=auto;html=1;exitX=0.75;exitY=0;exitDx=0;exitDy=0;entryX=1;entryY=0.5;entryDx=0;entryDy=0;endArrow=none;endFill=0;" edge="1" parent="WIyWlLk6GJQsqaUBKTNV-1" source="WFU6_DCVK5FejDo-Dc5B-39" target="WFU6_DCVK5FejDo-Dc5B-89">
          <mxGeometry relative="1" as="geometry">
            <Array as="points">
              <mxPoint x="-450" y="-620" />
              <mxPoint x="-460" y="-620" />
            </Array>
          </mxGeometry>
        </mxCell>
        <mxCell id="WFU6_DCVK5FejDo-Dc5B-91" value="1" style="edgeLabel;html=1;align=center;verticalAlign=middle;resizable=0;points=[];" vertex="1" connectable="0" parent="WFU6_DCVK5FejDo-Dc5B-90">
          <mxGeometry x="-0.7677" y="2" relative="1" as="geometry">
            <mxPoint x="12" y="8" as="offset" />
          </mxGeometry>
        </mxCell>
        <mxCell id="WFU6_DCVK5FejDo-Dc5B-92" value="1" style="edgeLabel;html=1;align=center;verticalAlign=middle;resizable=0;points=[];" vertex="1" connectable="0" parent="WFU6_DCVK5FejDo-Dc5B-90">
          <mxGeometry x="0.7972" y="1" relative="1" as="geometry">
            <mxPoint x="11" as="offset" />
          </mxGeometry>
        </mxCell>
        <mxCell id="WFU6_DCVK5FejDo-Dc5B-93" value="Describes" style="edgeLabel;html=1;align=center;verticalAlign=middle;resizable=0;points=[];" vertex="1" connectable="0" parent="WFU6_DCVK5FejDo-Dc5B-90">
          <mxGeometry x="0.0968" y="4" relative="1" as="geometry">
            <mxPoint x="29" y="30" as="offset" />
          </mxGeometry>
        </mxCell>
        <mxCell id="WFU6_DCVK5FejDo-Dc5B-94" style="edgeStyle=orthogonalEdgeStyle;rounded=0;orthogonalLoop=1;jettySize=auto;html=1;entryX=0.5;entryY=0;entryDx=0;entryDy=0;" edge="1" parent="WIyWlLk6GJQsqaUBKTNV-1" source="WFU6_DCVK5FejDo-Dc5B-57" target="WFU6_DCVK5FejDo-Dc5B-63">
          <mxGeometry relative="1" as="geometry" />
        </mxCell>
        <mxCell id="WFU6_DCVK5FejDo-Dc5B-95" value="Directs To" style="edgeLabel;html=1;align=center;verticalAlign=middle;resizable=0;points=[];" vertex="1" connectable="0" parent="WFU6_DCVK5FejDo-Dc5B-94">
          <mxGeometry x="-0.4133" y="4" relative="1" as="geometry">
            <mxPoint x="-31" y="-57" as="offset" />
          </mxGeometry>
        </mxCell>
        <mxCell id="WFU6_DCVK5FejDo-Dc5B-96" value="1" style="edgeLabel;html=1;align=center;verticalAlign=middle;resizable=0;points=[];" vertex="1" connectable="0" parent="WFU6_DCVK5FejDo-Dc5B-94">
          <mxGeometry x="-0.9269" y="3" relative="1" as="geometry">
            <mxPoint x="-5" y="-12" as="offset" />
          </mxGeometry>
        </mxCell>
        <mxCell id="WFU6_DCVK5FejDo-Dc5B-97" value="1" style="edgeLabel;html=1;align=center;verticalAlign=middle;resizable=0;points=[];" vertex="1" connectable="0" parent="WFU6_DCVK5FejDo-Dc5B-94">
          <mxGeometry x="0.9295" y="1" relative="1" as="geometry">
            <mxPoint x="9" y="1" as="offset" />
          </mxGeometry>
        </mxCell>
        <mxCell id="WFU6_DCVK5FejDo-Dc5B-98" style="edgeStyle=orthogonalEdgeStyle;rounded=0;orthogonalLoop=1;jettySize=auto;html=1;entryX=0.5;entryY=0;entryDx=0;entryDy=0;exitX=1;exitY=0.5;exitDx=0;exitDy=0;" edge="1" parent="WIyWlLk6GJQsqaUBKTNV-1" source="WFU6_DCVK5FejDo-Dc5B-115" target="WFU6_DCVK5FejDo-Dc5B-106">
          <mxGeometry relative="1" as="geometry">
            <mxPoint x="-329.909090909091" y="-592" as="sourcePoint" />
          </mxGeometry>
        </mxCell>
        <mxCell id="WFU6_DCVK5FejDo-Dc5B-99" value="1" style="edgeLabel;html=1;align=center;verticalAlign=middle;resizable=0;points=[];" vertex="1" connectable="0" parent="WFU6_DCVK5FejDo-Dc5B-98">
          <mxGeometry x="-0.7172" y="-1" relative="1" as="geometry">
            <mxPoint x="2" y="-9" as="offset" />
          </mxGeometry>
        </mxCell>
        <mxCell id="WFU6_DCVK5FejDo-Dc5B-100" value="1" style="edgeLabel;html=1;align=center;verticalAlign=middle;resizable=0;points=[];" vertex="1" connectable="0" parent="WFU6_DCVK5FejDo-Dc5B-98">
          <mxGeometry x="0.7577" y="1" relative="1" as="geometry">
            <mxPoint x="-11" as="offset" />
          </mxGeometry>
        </mxCell>
        <mxCell id="WFU6_DCVK5FejDo-Dc5B-101" value="Directs To" style="edgeLabel;html=1;align=center;verticalAlign=middle;resizable=0;points=[];" vertex="1" connectable="0" parent="WFU6_DCVK5FejDo-Dc5B-98">
          <mxGeometry x="0.2433" y="1" relative="1" as="geometry">
            <mxPoint x="29" y="11" as="offset" />
          </mxGeometry>
        </mxCell>
        <mxCell id="WFU6_DCVK5FejDo-Dc5B-102" style="edgeStyle=orthogonalEdgeStyle;rounded=0;orthogonalLoop=1;jettySize=auto;html=1;entryX=1;entryY=0.25;entryDx=0;entryDy=0;" edge="1" parent="WIyWlLk6GJQsqaUBKTNV-1" source="WFU6_DCVK5FejDo-Dc5B-106" target="WFU6_DCVK5FejDo-Dc5B-39">
          <mxGeometry relative="1" as="geometry" />
        </mxCell>
        <mxCell id="WFU6_DCVK5FejDo-Dc5B-103" value="Directs To" style="edgeLabel;html=1;align=center;verticalAlign=middle;resizable=0;points=[];" vertex="1" connectable="0" parent="WFU6_DCVK5FejDo-Dc5B-102">
          <mxGeometry x="-0.0797" y="-2" relative="1" as="geometry">
            <mxPoint x="32" y="20" as="offset" />
          </mxGeometry>
        </mxCell>
        <mxCell id="WFU6_DCVK5FejDo-Dc5B-104" value="1" style="edgeLabel;html=1;align=center;verticalAlign=middle;resizable=0;points=[];" vertex="1" connectable="0" parent="WFU6_DCVK5FejDo-Dc5B-102">
          <mxGeometry x="-0.8121" y="-3" relative="1" as="geometry">
            <mxPoint x="10" y="13" as="offset" />
          </mxGeometry>
        </mxCell>
        <mxCell id="WFU6_DCVK5FejDo-Dc5B-105" value="1" style="edgeLabel;html=1;align=center;verticalAlign=middle;resizable=0;points=[];" vertex="1" connectable="0" parent="WFU6_DCVK5FejDo-Dc5B-102">
          <mxGeometry x="0.6793" y="-1" relative="1" as="geometry">
            <mxPoint x="1" y="-9" as="offset" />
          </mxGeometry>
        </mxCell>
        <mxCell id="WFU6_DCVK5FejDo-Dc5B-106" value="Game Screen" style="swimlane;fontStyle=0;childLayout=stackLayout;horizontal=1;startSize=30;horizontalStack=0;resizeParent=1;resizeParentMax=0;resizeLast=0;collapsible=1;marginBottom=0;whiteSpace=wrap;html=1;" vertex="1" parent="WIyWlLk6GJQsqaUBKTNV-1">
          <mxGeometry x="-310" y="-470" width="160" height="60" as="geometry" />
        </mxCell>
        <mxCell id="WFU6_DCVK5FejDo-Dc5B-107" value="Layout" style="text;strokeColor=none;fillColor=none;align=left;verticalAlign=middle;spacingLeft=4;spacingRight=4;overflow=hidden;points=[[0,0.5],[1,0.5]];portConstraint=eastwest;rotatable=0;whiteSpace=wrap;html=1;" vertex="1" parent="WFU6_DCVK5FejDo-Dc5B-106">
          <mxGeometry y="30" width="160" height="30" as="geometry" />
        </mxCell>
        <mxCell id="WFU6_DCVK5FejDo-Dc5B-108" value="Ending Screen" style="swimlane;fontStyle=0;childLayout=stackLayout;horizontal=1;startSize=30;horizontalStack=0;resizeParent=1;resizeParentMax=0;resizeLast=0;collapsible=1;marginBottom=0;whiteSpace=wrap;html=1;" vertex="1" parent="WIyWlLk6GJQsqaUBKTNV-1">
          <mxGeometry x="-850" y="-430" width="160" height="60" as="geometry" />
        </mxCell>
        <mxCell id="WFU6_DCVK5FejDo-Dc5B-109" value="Layout" style="text;strokeColor=none;fillColor=none;align=left;verticalAlign=middle;spacingLeft=4;spacingRight=4;overflow=hidden;points=[[0,0.5],[1,0.5]];portConstraint=eastwest;rotatable=0;whiteSpace=wrap;html=1;" vertex="1" parent="WFU6_DCVK5FejDo-Dc5B-108">
          <mxGeometry y="30" width="160" height="30" as="geometry" />
        </mxCell>
        <mxCell id="WFU6_DCVK5FejDo-Dc5B-110" style="edgeStyle=orthogonalEdgeStyle;rounded=0;orthogonalLoop=1;jettySize=auto;html=1;entryX=1.009;entryY=0.069;entryDx=0;entryDy=0;entryPerimeter=0;exitX=0;exitY=0.5;exitDx=0;exitDy=0;" edge="1" parent="WIyWlLk6GJQsqaUBKTNV-1" source="WFU6_DCVK5FejDo-Dc5B-40" target="WFU6_DCVK5FejDo-Dc5B-109">
          <mxGeometry relative="1" as="geometry">
            <Array as="points">
              <mxPoint x="-630" y="-345" />
              <mxPoint x="-630" y="-398" />
            </Array>
          </mxGeometry>
        </mxCell>
        <mxCell id="WFU6_DCVK5FejDo-Dc5B-111" value="1" style="edgeLabel;html=1;align=center;verticalAlign=middle;resizable=0;points=[];" vertex="1" connectable="0" parent="WFU6_DCVK5FejDo-Dc5B-110">
          <mxGeometry x="0.8508" relative="1" as="geometry">
            <mxPoint x="-8" y="-12" as="offset" />
          </mxGeometry>
        </mxCell>
        <mxCell id="WFU6_DCVK5FejDo-Dc5B-112" value="1" style="edgeLabel;html=1;align=center;verticalAlign=middle;resizable=0;points=[];" vertex="1" connectable="0" parent="WFU6_DCVK5FejDo-Dc5B-110">
          <mxGeometry x="-0.9023" y="1" relative="1" as="geometry">
            <mxPoint x="-1" y="14" as="offset" />
          </mxGeometry>
        </mxCell>
        <mxCell id="WFU6_DCVK5FejDo-Dc5B-113" value="Directs To" style="edgeLabel;html=1;align=center;verticalAlign=middle;resizable=0;points=[];" vertex="1" connectable="0" parent="WFU6_DCVK5FejDo-Dc5B-110">
          <mxGeometry x="0.0058" y="-4" relative="1" as="geometry">
            <mxPoint x="16" y="-11" as="offset" />
          </mxGeometry>
        </mxCell>
        <mxCell id="WFU6_DCVK5FejDo-Dc5B-114" value="Difficulty Menu" style="swimlane;fontStyle=0;childLayout=stackLayout;horizontal=1;startSize=30;horizontalStack=0;resizeParent=1;resizeParentMax=0;resizeLast=0;collapsible=1;marginBottom=0;whiteSpace=wrap;html=1;" vertex="1" parent="WIyWlLk6GJQsqaUBKTNV-1">
          <mxGeometry x="-425" y="-660" width="160" height="60" as="geometry" />
        </mxCell>
        <mxCell id="WFU6_DCVK5FejDo-Dc5B-115" value="Name" style="text;strokeColor=none;fillColor=none;align=left;verticalAlign=middle;spacingLeft=4;spacingRight=4;overflow=hidden;points=[[0,0.5],[1,0.5]];portConstraint=eastwest;rotatable=0;whiteSpace=wrap;html=1;" vertex="1" parent="WFU6_DCVK5FejDo-Dc5B-114">
          <mxGeometry y="30" width="160" height="30" as="geometry" />
        </mxCell>
      </root>
    </mxGraphModel>
  </diagram>
</mxfile>
